<svg xmlns="http://www.w3.org/2000/svg" viewBox="0 0 64 80" x="0px" y="0px"><title>japan, japanese, Maneki neko</title><g data-name="Layer 2"><path d="M58.63,20.64c-.72-4.67-3.31-7.2-7.49-7.32a11.1863,11.1863,0,0,0-4.99.91A59.863,59.863,0,0,0,40.63,1.97a.9757.9757,0,0,0-.75-.47,1.027,1.027,0,0,0-.83.3L32.66,8.54c-2.24-.58-10.13-2.31-15.76.48L10.84,4.56a1.0291,1.0291,0,0,0-.82-.17,1.0175,1.0175,0,0,0-.66.52c-.34.67-8.32,16.53-2.01,26.77a13.7376,13.7376,0,0,0,1.6391,2.1489C7.1337,36.7444,1.0631,46.9335,3.46,51.9609a4.4227,4.4227,0,0,0,1.6894,1.8975L5.15,53.86l.01.01c.63,1.45,3.15,6.59,7.74,7.75,2.94.75,6.06-.28,9.27-3.04,6.3-5.4,11.14-2.66,14.09.61a9.6188,9.6188,0,0,0,7.08,3.32c.24,0,.47-.01.71-.03a7.5259,7.5259,0,0,0,5.83-3.11c2.02-2.94,2.07-7.81.11-14.53-.02-.05-1.87-5.43,3.83-10.94A15.4054,15.4054,0,0,0,58.63,20.64ZM10.64,6.89l5.58,4.12a1.0236,1.0236,0,0,0,1.09.06c5.73-3.27,15.28-.48,15.37-.45a.9953.9953,0,0,0,1.01-.27l5.89-6.2a59.81,59.81,0,0,1,4.81,11.21,5.63,5.63,0,0,0-1.25,1.51,4.8015,4.8015,0,0,0,.07,5.01,5.9437,5.9437,0,0,0,2.61,2.21,13.99,13.99,0,0,1-1.59,6.76c-2.52,4.56-8.15,6.9-16.74,6.96-9.21.1-15.45-2.34-18.44-7.18C4.21,22.78,9,10.56,10.64,6.89ZM48.09,45.46c1.76,6.06,1.81,10.36.14,12.78a5.548,5.548,0,0,1-4.35,2.25,7.509,7.509,0,0,1-6.14-2.65c-2.33-2.58-8.66-7.83-16.87-.77-2.69,2.31-5.2,3.19-7.47,2.61-2.6595-.67-4.5392-3.1888-5.5893-4.9888.0315.0033.06.01.0916.0129q.76.0732,1.4454.0723c2.5263,0,4.2783-.7315,5.2187-2.1807,1.9668-3.03-.5986-7.7656-.8975-8.2949a1,1,0,0,0-1.7421.9814c.6455,1.15,2.0771,4.5108.9609,6.2266-.84,1.291-3.0713,1.3662-4.7979,1.2051a3.1381,3.1381,0,0,1-2.8242-1.6133c-1.687-3.5363,2.7318-11.902,5.2067-15.8689C14.2023,38.2805,19.7615,39.82,27.1,39.82c.13,0,.27,0,.4-.01,9.37-.07,15.58-2.76,18.48-7.99a15.68,15.68,0,0,0,1.82-7.09,13.67,13.67,0,0,0,3.68.19,1.0028,1.0028,0,0,0-.15-2,11.07,11.07,0,0,1-3.55-.25,5.4548,5.4548,0,0,1-2.07-.98,3.3729,3.3729,0,0,1-.81-.88,2.7776,2.7776,0,0,1-.02-2.95,2.3924,2.3924,0,0,1,.13-.21,4.5693,4.5693,0,0,1,1.7-1.48,8.8512,8.8512,0,0,1,4.37-.85c3.18.09,5,1.93,5.57,5.63a13.3766,13.3766,0,0,1-4.22,11.51C45.81,38.87,48.02,45.26,48.09,45.46ZM28.28,40.3a4.79,4.79,0,1,0,4.79,4.79A4.797,4.797,0,0,0,28.28,40.3Zm0,7.58a2.79,2.79,0,1,1,2.79-2.79A2.7976,2.7976,0,0,1,28.28,47.88ZM20.6367,23.6387a2.1586,2.1586,0,0,1,.2735.0273,4.2636,4.2636,0,0,0,2.6717-.2445L23.58,23.42a2.2339,2.2339,0,0,1-.73-1.66,2.265,2.265,0,1,1,3.91,1.55,1.1923,1.1923,0,0,0,.1324.14,3.1042,3.1042,0,0,0,2.5215.3184,1,1,0,1,1,.3457,1.9707,8.1857,8.1857,0,0,1-1.4014.1308,4.0718,4.0718,0,0,1-2.8086-.9375,3.1181,3.1181,0,0,1-.2783-.2793,3.637,3.637,0,0,1-.2881.24,5.7141,5.7141,0,0,1-4.3633.7509.9951.9951,0,0,1-.9912-1.0029A1.0086,1.0086,0,0,1,20.6367,23.6387Zm-7.4453-4.3242a3.68,3.68,0,0,1,7.36,0,1,1,0,0,1-2,0,1.68,1.68,0,0,0-3.36,0,1,1,0,0,1-2,0Zm17.2969-1.34a3.68,3.68,0,0,1,7.3594,0,1,1,0,0,1-2,0,1.68,1.68,0,0,0-3.3594,0,1,1,0,0,1-2,0Z"/></g><text x="0" y="79" fill="#000000" font-size="5px" font-weight="bold" font-family="'Helvetica Neue', Helvetica, Arial-Unicode, Arial, Sans-serif">Created by NAFL Studio</text><text x="0" y="84" fill="#000000" font-size="5px" font-weight="bold" font-family="'Helvetica Neue', Helvetica, Arial-Unicode, Arial, Sans-serif">from the Noun Project</text></svg>