<svg xmlns="http://www.w3.org/2000/svg" viewBox="0 0 90 112.5" fill="none" x="0px" y="0px"><path d="M83.4144 43.6818C83.2581 43.6818 83.1241 43.6595 82.9678 43.6148L62.7117 37.7189C62.198 37.5625 61.796 37.1606 61.6173 36.6469C61.461 36.1332 61.5727 35.5749 61.9077 35.1506L69.2106 26.262C69.5009 25.9047 69.9476 25.6813 70.4166 25.6813C70.9079 25.6367 71.3322 25.8823 71.6449 26.2397L84.5981 41.0465C85.0671 41.5825 85.1341 42.3642 84.7544 42.9672C84.4641 43.4138 83.9504 43.6818 83.4144 43.6818ZM65.95 35.3069L78.5905 38.9919L70.5059 29.7683L65.95 35.3069Z" fill="black"/><path d="M56.8602 67.489C56.7485 67.489 56.6369 67.4667 56.5252 67.4444C55.6542 67.2657 55.0959 66.4171 55.2745 65.5461L61.5725 35.8207C61.7511 34.9498 62.5998 34.3914 63.4708 34.5701C64.3418 34.7488 64.9001 35.5974 64.7214 36.4684L58.4235 66.1937C58.2672 66.9754 57.5972 67.489 56.8602 67.489Z" fill="black"/><path d="M65.6149 79.8615C65.5256 79.8615 65.4139 79.8615 65.3246 79.8392C64.4536 79.6829 63.8729 78.8565 64.0293 77.9632L70.8632 39.93C71.0195 39.059 71.8682 38.4783 72.7392 38.6347C73.6102 38.791 74.1908 39.6173 74.0345 40.5106L67.2006 78.5439C67.0442 79.3032 66.3742 79.8615 65.6149 79.8615Z" fill="black"/><path d="M59.0265 84.8419L31.9365 84.8196C31.4005 84.8196 30.8868 84.5516 30.5965 84.0826L16.5043 62.2855C16.348 62.0398 16.2587 61.7272 16.2363 61.4369L15.678 17.0164C15.678 16.324 16.1023 15.721 16.7277 15.4754C17.3753 15.2297 18.09 15.4531 18.5143 15.9667L57.1729 63.5362L66.8878 77.2934C67.3791 78.008 67.2451 78.9683 66.5528 79.5043L59.9868 84.4846C59.7189 84.7303 59.3839 84.8419 59.0265 84.8419ZM32.8298 81.6037L58.4905 81.626L63.3815 77.8964L54.6269 65.5015L18.961 21.617L19.4523 60.9455L32.8298 81.6037Z" fill="black"/><path d="M59.6072 54.4908C58.8926 54.4908 58.2449 54.0218 58.0439 53.2848L47.391 12.8173L39.5298 41.56C39.3064 42.4086 38.4131 42.9223 37.5645 42.6766C36.7158 42.4533 36.2021 41.56 36.4478 40.7113L45.8947 6.18435C46.0957 5.49203 46.7657 4.97837 47.458 5.0007C48.195 5.0007 48.8203 5.49201 48.999 6.20667L61.1929 52.4808C61.4162 53.3295 60.9025 54.2228 60.0539 54.4462C59.8976 54.4685 59.7412 54.4908 59.6072 54.4908Z" fill="black"/><path d="M31.9589 84.8194C31.8695 84.8194 31.7802 84.8194 31.6909 84.7971L18.894 82.7201C18.492 82.6531 18.1347 82.4298 17.889 82.1171L5.33784 65.8586C4.89118 65.3003 4.89118 64.5186 5.31551 63.938C5.73984 63.3573 6.47683 63.134 7.14682 63.3573L24.7006 69.6329C25.527 69.9232 25.9736 70.8612 25.6833 71.6876C25.393 72.5362 24.455 72.9605 23.6286 72.6702L11.2338 68.2482L20.033 79.6605L32.2045 81.6258C33.0755 81.7598 33.6785 82.5861 33.5445 83.4794C33.4105 84.2611 32.7182 84.8194 31.9589 84.8194Z" fill="black"/><text x="0" y="105" fill="#000000" font-size="5px" font-weight="bold" font-family="'Helvetica Neue', Helvetica, Arial-Unicode, Arial, Sans-serif">Created by Ahmad</text><text x="0" y="110" fill="#000000" font-size="5px" font-weight="bold" font-family="'Helvetica Neue', Helvetica, Arial-Unicode, Arial, Sans-serif">from the Noun Project</text></svg>