<svg xmlns="http://www.w3.org/2000/svg" viewBox="0 0 64 80" x="0px" y="0px"><title>japan, japanese, uchiwa, fan</title><g data-name="Layer 2"><path d="M56.9814,21.5361a1,1,0,0,0-.3876-.7324,49.9364,49.9364,0,0,0-18.8625-7.94.97.97,0,0,0-.24-.1124.9815.9815,0,0,0-.41-.0109,44.6723,44.6723,0,0,0-19.4561.6659.9535.9535,0,0,0-.1835.0217.9234.9234,0,0,0-.0894.0508A49.4015,49.4015,0,0,0,1.9229,20.7744,1,1,0,0,0,1.7822,22.3L26.0027,46.759l-.114,2.4178-3.4492,3.51a2.1808,2.1808,0,0,0,.3769,3.3614l5.23,3.3613a2.1792,2.1792,0,0,0,2.3886-.02L35.7266,55.86a2.18,2.18,0,0,0,.2187-3.462l-4.1924-3.6318-.0128-1.983L56.6836,22.31A.9974.9974,0,0,0,56.9814,21.5361ZM36.0145,14.59,31.6727,32.4124a19.4843,19.4843,0,0,0-2.82-.2161,19.2579,19.2579,0,0,0-4.0572.4434L19.05,15.1248A42.771,42.771,0,0,1,36.0145,14.59ZM31.198,34.3609,28.71,44.5742,25.4209,34.5469a17.2816,17.2816,0,0,1,3.4316-.3506A17.5074,17.5074,0,0,1,31.198,34.3609ZM4.0508,21.748a47.19,47.19,0,0,1,13.06-6.1188L22.8605,33.157a18.8252,18.8252,0,0,0-4.997,2.54Zm15.2305,15.38A16.802,16.802,0,0,1,23.4847,35.06l3.097,9.4413ZM34.6348,53.91a.1795.1795,0,0,1-.0176.2861l-5.29,3.5283a.18.18,0,0,1-.1982.0029l-5.2314-3.3623a.1712.1712,0,0,1-.0811-.1308.1746.1746,0,0,1,.05-.1465l3.7158-3.7813a1,1,0,0,0,.2862-.6543l.0457-.9633.2277.23c.0153.0154.0357.02.0516.0347a.9855.9855,0,0,0,.22.147.9721.9721,0,0,0,.0926.0472.9891.9891,0,0,0,.3472.068c.0127,0,.0254,0,.0391-.001a.9993.9993,0,0,0,.3257-.0692c.0165-.0065.03-.0194.046-.0267a.9914.9914,0,0,0,.2571-.1681c.01-.0089.0228-.0117.0323-.0211l.2-.1962.0032.4989a1.0026,1.0026,0,0,0,.3447.749Zm-3.9811-8.8633,2.5088-10.2991a16.7212,16.7212,0,0,1,5.44,2.4993Zm9.3866-9.21a18.7241,18.7241,0,0,0-6.4017-3.0439l4.3451-17.8375a49.1082,49.1082,0,0,1,16.4382,6.7707Z"/></g><text x="0" y="79" fill="#000000" font-size="5px" font-weight="bold" font-family="'Helvetica Neue', Helvetica, Arial-Unicode, Arial, Sans-serif">Created by NAFL Studio</text><text x="0" y="84" fill="#000000" font-size="5px" font-weight="bold" font-family="'Helvetica Neue', Helvetica, Arial-Unicode, Arial, Sans-serif">from the Noun Project</text></svg>